# Blender 3.5.0
# www.blender.org
mtllib Box.mtl
o box.001_Cube.009
v 1.000000 1.000000 -1.000000
v 1.000000 -1.000000 -1.000000
v 1.000000 1.000000 1.000000
v 1.000000 -1.000000 1.000000
v -1.000000 1.000000 -1.000000
v -1.000000 -1.000000 -1.000000
v -1.000000 1.000000 1.000000
v -1.000000 -1.000000 1.000000
vn -0.0000 1.0000 -0.0000
vn -0.0000 -0.0000 1.0000
vn -1.0000 -0.0000 -0.0000
vn -0.0000 -1.0000 -0.0000
vn 1.0000 -0.0000 -0.0000
vn -0.0000 -0.0000 -1.0000
vt 1.003459 0.000372
vt -0.003459 0.000372
vt 1.003459 0.991294
vt -0.003459 0.991294
vt 2.010377 0.000372
vt 1.003459 -0.990550
vt -1.010377 0.000372
vt -0.003459 -0.990550
vt 2.010377 0.991294
vt 1.003459 1.982216
vt 1.003459 -1.981472
vt -0.003459 -1.981472
vt -0.003459 1.982216
vt -1.010377 0.991294
s 0
usemtl Material.002
f 5/5/1 3/3/1 1/1/1
f 3/3/2 8/13/2 4/4/2
f 7/11/3 6/8/3 8/12/3
f 2/2/4 8/14/4 6/7/4
f 1/1/5 4/4/5 2/2/5
f 5/6/6 2/2/6 6/8/6
f 5/5/1 7/9/1 3/3/1
f 3/3/2 7/10/2 8/13/2
f 7/11/3 5/6/3 6/8/3
f 2/2/4 4/4/4 8/14/4
f 1/1/5 3/3/5 4/4/5
f 5/6/6 1/1/6 2/2/6
